<svg xmlns="http://www.w3.org/2000/svg" xmlns:svg="http://www.w3.org/2000/svg" id="svg4" width="16" height="16" version="1.1" viewBox="0 0 16 16" style="fill:#000"><metadata id="metadata10"/><rect style="opacity:.1;fill:#000;fill-opacity:1;stroke:none;stroke-width:1.69611919;stroke-linejoin:round;stroke-miterlimit:4;stroke-dasharray:none;stroke-dashoffset:0;stroke-opacity:1;paint-order:stroke fill markers" id="rect812" width="11" height="11" x="2" y="3" rx="0" ry="0"/><path style="fill:#797979;fill-opacity:1;stroke-width:.8888889" id="path2" d="M 2.7773438,2 C 1.7995659,2 1,2.7995659 1,3.7773438 L 1,13.222656 C 1,14.200434 1.7995659,15 2.7773438,15 l 9.4453122,0 C 13.200434,15 14,14.200434 14,13.222656 L 14,3.7773438 C 14,2.7995659 13.200434,2 12.222656,2 L 2.7773438,2 Z M 3.5039062,3 11.496094,3 C 12.323445,3 13,3.6765559 13,4.5039062 l 0,7.9921878 C 13,13.323445 12.323445,14 11.496094,14 L 3.5039062,14 C 2.6765557,14 2,13.323445 2,12.496094 L 2,4.5039062 C 2,3.6765559 2.6765557,3 3.5039062,3 Z"/></svg>