<svg xmlns="http://www.w3.org/2000/svg" xmlns:svg="http://www.w3.org/2000/svg" id="svg8" width="20" height="20" version="1.1" viewBox="0 0 5.292 5.292"><metadata id="metadata5"/><g id="layer1" transform="translate(0,-291.70833)"><circle id="path815" cx="2.646" cy="294.354" r="2.507" style="opacity:1;fill:#6aa44e;fill-opacity:1;stroke:#83c169;stroke-width:.26458333;stroke-linecap:round;stroke-linejoin:miter;stroke-miterlimit:4;stroke-dasharray:none;stroke-opacity:1;paint-order:markers fill stroke"/><path id="rect849-9-9" d="m 1.585057,293.03211 c -0.061131,0.006 -0.1241048,0.0342 -0.1751831,0.0853 -0.1021871,0.10221 -0.1162639,0.25328 -0.031006,0.33848 l 0.8981364,0.89813 -0.8981364,0.89814 c -0.085153,0.0852 -0.071633,0.2358 0.030489,0.33796 0.1021921,0.1022 0.2532876,0.11631 0.3384806,0.031 l 0.8981364,-0.89814 0.8981364,0.89814 c 0.085217,0.0852 0.2357964,0.0716 0.3379639,-0.0305 0.1021872,-0.1022 0.116263,-0.25328 0.031006,-0.33848 L 3.0149438,294.354 3.9125634,293.45587 c 0.085143,-0.0852 0.071633,-0.23632 -0.030489,-0.33848 -0.1022022,-0.1022 -0.2527707,-0.11579 -0.3379639,-0.0305 l -0.8981364,0.89813 -0.8981364,-0.89813 c -0.042609,-0.0426 -0.1016497,-0.0603 -0.1627807,-0.0548 z" style="opacity:1;fill:#fff;fill-opacity:1;stroke:none;stroke-width:.33201277;stroke-linecap:round;stroke-linejoin:miter;stroke-miterlimit:4;stroke-dasharray:none;stroke-opacity:1;paint-order:markers fill stroke"/></g></svg>