<svg xmlns="http://www.w3.org/2000/svg" xmlns:svg="http://www.w3.org/2000/svg" id="svg8" width="16" height="16" version="1.1" viewBox="0 0 4.233 4.233"><metadata id="metadata5"/><path id="path816-3" d="m 1.9843749,0.52916689 c -0.9498147,3e-8 -1.71979162,0.76997701 -1.71979167,1.71979171 5e-8,0.9498148 0.76997697,1.7197917 1.71979167,1.7197917 0.9498148,0 1.7197917,-0.7699769 1.7197917,-1.7197917 0,-0.9498147 -0.7699769,-1.71979168 -1.7197917,-1.71979171 z m 0,0.26458337 A 1.4552084,1.4552084 0 0 1 3.4395833,2.2489586 1.4552084,1.4552084 0 0 1 1.9843749,3.704167 1.4552084,1.4552084 0 0 1 0.52916657,2.2489586 1.4552084,1.4552084 0 0 1 1.9843749,0.79375026 Z" style="opacity:1;fill:#e6e6e6;fill-opacity:1;stroke:none;stroke-width:.44594368;stroke-linejoin:round;stroke-miterlimit:4;stroke-dasharray:none;stroke-dashoffset:0;stroke-opacity:1;paint-order:stroke fill markers"/><path id="path815-3" d="m 1.148767,1.8520836 a 0.92604166,0.92604166 0 0 0 -0.090434,0.396875 0.92604166,0.92604166 0 0 0 0.090434,0.396875 l 1.6712158,0 a 0.92604166,0.92604166 0 0 0 0.090434,-0.396875 0.92604166,0.92604166 0 0 0 -0.090434,-0.396875 l -1.6712158,0 z" style="opacity:1;fill:#e6e6e6;fill-opacity:1;stroke:none;stroke-width:1.90276861;stroke-linejoin:round;stroke-miterlimit:4;stroke-dasharray:none;stroke-dashoffset:0;stroke-opacity:1;paint-order:stroke fill markers"/></svg>